<?xml version="1.0" encoding="UTF-8"?>
<svg width="256" height="256" viewBox="0 0 256 256" xmlns="http://www.w3.org/2000/svg" role="img" aria-label="Seguranca pública">
  <defs>
    <linearGradient id="g" x1="0" y1="0" x2="1" y2="1">
      <stop offset="0%" stop-color="#1e40af"/>
      <stop offset="100%" stop-color="#3b82f6"/>
    </linearGradient>
    <filter id="shadow" x="-20%" y="-20%" width="140%" height="140%">
      <feDropShadow dx="0" dy="2" stdDeviation="4" flood-color="#0f172a" flood-opacity="0.25"/>
    </filter>
  </defs>
  <rect width="256" height="256" rx="56" fill="#ffffff"/>
  <!-- Shield -->
  <g filter="url(#shadow)" transform="translate(40,24)">
    <path d="M88 0c14 12 34 20 56 22v66c0 42-28 79-70 96-42-17-70-54-70-96V22C26 20 46 12 60 0c8 8 18 12 28 12S80 8 88 0z" fill="url(#g)"/>
    <!-- Star / badge -->
    <path d="M88 54l10 20 22 3-16 15 4 22-20-10-20 10 4-22-16-15 22-3 10-20z" fill="#ffffff" opacity="0.95"/>
  </g>
</svg>



